<?xml version="1.0" encoding="UTF-8"?>
<svg width="512px" height="512px" viewBox="0 0 512 512" version="1.1" xmlns="http://www.w3.org/2000/svg" xmlns:xlink="http://www.w3.org/1999/xlink">
    <title>moment-logo</title>
    <defs>
        <path d="M0,0 L512,0 L512,512 L0,512 Z" id="path-1"></path>
    </defs>
    <g id="moment-logo" stroke="none" fill="none" xlink:href="#path-1">
        <use fill="#FFFFFF" fill-rule="evenodd" xlink:href="#path-1"></use>
        <path d="M168.007758,247.864437 L168.007758,70 L213.40719,70 L213.40719,247.864437 L168.007758,247.864437 Z M93,247.864437 L93,70 L138.399432,70 L138.399432,247.864437 L93,247.864437 Z M242.632871,442 L242.632871,367.443126 C266.018568,365.493927 283.639041,361.027012 295.49429,354.042381 C307.349539,347.05775 315.956774,335.362555 321.315996,318.956794 C326.675219,302.551033 329.35483,279.079424 329.35483,248.541969 L242.632871,248.541969 L242.632871,70.6775318 L419,70.6775318 L419,239.770572 C419,310.266613 404.221539,361.595529 374.664617,393.757317 C345.107695,425.919106 301.097113,442 242.632871,442 Z" id="Shape" fill="#000000" fill-rule="nonzero"></path>
    </g>
</svg>